<?xml version="1.0" encoding="UTF-8"?>
<svg width="16px" height="16px" viewBox="0 0 16 16" version="1.1" xmlns="http://www.w3.org/2000/svg" xmlns:xlink="http://www.w3.org/1999/xlink">
    <!-- Generator: Sketch 51.3 (57544) - http://www.bohemiancoding.com/sketch -->
    <title>icon-search</title>
    <desc>Created with Sketch.</desc>
    <defs></defs>
    <g id="Page-1" stroke="none" stroke-width="1" fill="none" fill-rule="evenodd">
        <g id="路印协议首届交易排名赛" transform="translate(-611.000000, -2066.000000)" fill="#000000" fill-rule="nonzero">
            <g id="search" transform="translate(362.000000, 2058.000000)">
                <g id="icon-search" transform="translate(249.000000, 8.000000)">
                    <path d="M11.9956884,10.5814749 L15.7071068,14.2928932 C16.0976311,14.6834175 16.0976311,15.3165825 15.7071068,15.7071068 C15.3165825,16.0976311 14.6834175,16.0976311 14.2928932,15.7071068 L10.5814749,11.9956884 C9.50140219,12.7871758 8.16891748,13.2545455 6.72727273,13.2545455 C3.12235954,13.2545455 0.2,10.3321859 0.2,6.72727273 C0.2,3.12235954 3.12235954,0.2 6.72727273,0.2 C10.3321859,0.2 13.2545455,3.12235954 13.2545455,6.72727273 C13.2545455,8.16891748 12.7871758,9.50140219 11.9956884,10.5814749 Z M6.72727273,11.6545455 C9.44853031,11.6545455 11.6545455,9.44853031 11.6545455,6.72727273 C11.6545455,4.00601514 9.44853031,1.8 6.72727273,1.8 C4.00601514,1.8 1.8,4.00601514 1.8,6.72727273 C1.8,9.44853031 4.00601514,11.6545455 6.72727273,11.6545455 Z" id="Combined-Shape"></path>
                </g>
            </g>
        </g>
    </g>
</svg>