<?xml version="1.0" encoding="UTF-8"?>
<svg width="331px" height="100px" viewBox="0 0 331 100" version="1.1" xmlns="http://www.w3.org/2000/svg" xmlns:xlink="http://www.w3.org/1999/xlink">
    <!-- Generator: Sketch 51.3 (57544) - http://www.bohemiancoding.com/sketch -->
    <title>logo-white</title>
    <desc>Created with Sketch.</desc>
    <defs></defs>
    <g id="Page-1" stroke="none" stroke-width="1" fill="none" fill-rule="evenodd">
        <g id="路印协议首届交易排名赛" transform="translate(-644.000000, -128.000000)" fill="#FFFFFF" fill-rule="nonzero">
            <g id="logo-white" transform="translate(644.000000, 128.000000)">
                <g id="Fill-17" transform="translate(131.250000, 47.656250)">
                    <path d="M0.00375,1.07054687 L0.00375,51.3642969 L19.188125,51.3642969 L19.188125,44.4674219 L8.1225,44.4674219 L8.1225,1.07054687 L0.00375,1.07054687 Z M199.10375,19.0327344 L199.10375,10.6991406 C199.10375,4.59132813 195.008437,0.638984375 187.607656,0.638984375 C180.207656,0.638984375 176.112344,4.66242188 176.112344,10.6991406 L176.112344,41.7366406 C176.112344,47.7717969 180.207656,51.7967969 187.607656,51.7967969 C195.008437,51.7967969 199.10375,47.8444531 199.10375,41.7366406 L199.10375,26.2897656 L187.751406,26.2897656 L187.751406,33.1866406 L191.200625,33.1866406 L191.200625,41.7366406 C191.200625,43.6772656 189.692031,44.6827344 187.607656,44.6827344 C185.380313,44.6827344 184.30375,43.6772656 184.30375,41.7366406 L184.30375,10.6991406 C183.727969,6.74679688 191.415469,6.89054688 191.200625,10.6991406 L191.200625,19.0327344 L199.10375,19.0327344 Z M163.322656,15.8711719 C163.322656,19.7516406 163.395313,23.9899219 163.5375,28.5875781 L156.065625,1.07039062 L147.228906,1.07039062 L147.228906,51.3649219 L154.628906,51.3649219 L154.628906,36.5641406 C154.628906,32.4688281 154.557031,28.0852344 154.414062,23.3430469 L162.101563,51.3649219 L170.724219,51.3649219 L170.724219,1.07039062 L163.322656,1.07039062 L163.322656,15.8711719 Z M133.217969,51.3648438 L141.336719,51.3648438 L141.336719,1.07109375 L133.217969,1.07109375 L133.217969,51.3648438 Z M119.803828,22.2653125 C119.803828,24.2059375 118.798359,25.2114063 116.858516,25.2114063 L113.194453,25.2114063 L113.194453,7.96765625 L116.858516,7.96765625 C118.798359,7.96765625 119.803828,8.97390625 119.803828,10.91375 L119.803828,22.2653125 Z M127.924141,22.2653125 L127.924141,10.91375 C127.924141,4.8059375 124.116328,1.07078125 116.858516,1.07078125 L105.075703,1.07078125 L105.075703,51.3645312 L113.194453,51.3645312 L113.194453,32.1098438 L115.710859,32.1098438 L120.842891,51.3645312 L128.962422,51.3645312 L123.442109,30.6582812 C126.396797,29.0371875 127.924141,26.1270312 127.924141,22.2653125 Z M92.9071875,22.2653125 C92.9071875,24.2059375 91.9017188,25.2114063 89.961875,25.2114063 L86.2978125,25.2114063 L86.2978125,7.96765625 L89.961875,7.96765625 C91.9017188,7.96765625 92.9071875,8.97390625 92.9071875,10.91375 L92.9071875,22.2653125 Z M89.961875,1.07078125 L78.1790625,1.07078125 L78.1790625,51.3645312 L86.2978125,51.3645312 L86.2978125,32.1098438 L89.961875,32.1098438 C97.2196875,32.1098438 101.0275,28.3723437 101.0275,22.2653125 L101.0275,10.91375 C101.0275,4.8059375 97.2196875,1.07078125 89.961875,1.07078125 Z M64.67,41.7363281 C65.1004688,45.6175781 57.4840625,45.6175781 57.9879688,41.7363281 L57.9879688,10.6988281 C57.4840625,6.81835938 65.1004688,6.81835938 64.67,10.6988281 L64.67,41.7363281 Z M61.291875,0.639453125 C53.891875,0.639453125 49.7965625,4.66210938 49.7965625,10.6988281 L49.7965625,41.7363281 C49.7965625,47.7722656 53.891875,51.7964844 61.291875,51.7964844 C68.6926563,51.7964844 72.78875,47.8441406 72.78875,41.7363281 L72.78875,10.6988281 C72.78875,4.59101562 68.6926563,0.639453125 61.291875,0.639453125 Z M36.8632031,41.7363281 C37.2936719,45.6175781 29.6780469,45.6175781 30.1819531,41.7363281 L30.1819531,10.6988281 C29.6780469,6.81835938 37.2936719,6.81835938 36.8632031,10.6988281 L36.8632031,41.7363281 Z M33.4858594,0.639453125 C26.0858594,0.639453125 21.9905469,4.66210938 21.9905469,10.6988281 L21.9905469,41.7363281 C21.9905469,47.7722656 26.0858594,51.7964844 33.4858594,51.7964844 C40.8858594,51.7964844 44.9827344,47.8441406 44.9827344,41.7363281 L44.9827344,10.6988281 C44.9827344,4.59101562 40.8858594,0.639453125 33.4858594,0.639453125 Z" id="path-1"></path>
                </g>
                <path d="M71.6603906,48.6817969 L123.811953,48.6817969 L123.811953,48.9966406 L42.3580469,98.6825781 L82.7814844,66.3669531 L71.6603906,48.6817969 Z M41.2439063,0.780703125 L41.2439063,99.3385156 L0.00015625,66.3666406 L41.2439063,0.780703125 Z" id="Path"></path>
            </g>
        </g>
    </g>
</svg>